{"title":"Chantal Akerman - Jeanne Dielman (1975)","uid":5996489,"size":1939729852,"categoryP":"video","categoryS":"movies","magnet":"?xt=urn:btih:154396c5d7fa98c1bab6c4738a2a8dd7545eebb9&amp;dn=Chantal+Akerman+-+Jeanne+Dielman+%281975%29&amp;tr=udp%3A%2F%2Ftracker.openbittorrent.com%3A80&amp;tr=udp%3A%2F%2Fopen.demonii.com%3A1337&amp;tr=udp%3A%2F%2Ftracker.coppersurfer.tk%3A6969&amp;tr=udp%3A%2F%2Fexodus.desync.com%3A6969","seeders":10,"leechers":0,"uploader":"mfccorrea","files":3,"time":1291037852,"description":"A classic of both feminist and experimental filmmaking, Chantal Akerman's marathon dissection of the life of Belgian housewife/mother/prostitute Jeanne Dielman (Delphine Seyrig) stays on the surface of the details of Jeanne's humdrum daily life, as if it were a real-life, real-time documentary of an ordinary life, in the tradition of AgnÃƒÂ¨s Varda's earlier New Wave landmark, Cleo From 5 to 7 (1961). Jeanne feeds her son, fixes potatoes, does the marketing, entertains gentlemen -- but things slowly, almost imperceptibly start to go wrong, first those potatoes, and then, finally, something more shocking. Akerman sets out to capture the rhythm of daily life, even as that pace sets us up, after several hours, for the almost tossed-off, blink-and-you'll-miss-it climax. \n\n   General\n      Complete name : jeannedielman.avi\n      Format : AVI\n      Format/Info : Audio Video Interleave\n      File size : 1.81 GiB\n      Duration : 3h 13mn\n      Overall bit rate : 1 339 Kbps\n   Video #0\n      ID : 0\n      Format : MPEG-4 Visual\n      Format profile : Simple@L3\n      Format settings, BVOP : No\n      Format settings, QPel : No\n      Format settings, GMC : No warppoints\n      Format settings, Matrix : Default (H.263)\n      Codec ID : XVID\n      Codec ID/Hint : XviD\n      Duration : 3h 13mn\n      Bit rate : 1 070 Kbps\n      Width : 624 pixels\n      Height : 384 pixels\n      Display aspect ratio : 1.625\n      Frame rate : 25.000 fps\n      Resolution : 24 bits\n      Colorimetry : 4:2:0\n      Scan type : Progressive\n      Bits/(Pixel*Frame) : 0.179\n      Stream size : 1.44 GiB (80%)\n      Writing library : XviD 1.1.2 (UTC 2006-11-01)\n   Audio #1\n      ID : 1\n      Format : MPEG Audio\n      Format version : Version 1\n      Format profile : Layer 3\n      Codec ID : 55\n      Codec ID/Hint : MP3\n      Duration : 3h 13mn\n      Bit rate mode : Constant\n      Bit rate : 256 Kbps\n      Channel(s) : 2 channels\n      Sampling rate : 48.0 KHz\n      Resolution : 16 bits\n      Video delay : 24ms\n      Stream size : 354 MiB (19%)\n      Alignment : Split accross interleaves\n      Interleave, duration : 24 ms (0.60 video frame)\n &lt;a href=&quot;\nhttp://www.imdb.com/title/tt0073198/&quot; rel=&quot;nofollow&quot; target=&quot;_NEW&quot;&gt;\nhttp://www.imdb.com/title/tt0073198/&lt;/a&gt;\n\nFrench audio; English and Spanish subtitles\n\nChantal Akerman - Jeanne Dielman (1975)","torrent":{"xt":"urn:btih:154396c5d7fa98c1bab6c4738a2a8dd7545eebb9","amp;dn":"Chantal+Akerman+-+Jeanne+Dielman+%281975%29","amp;tr":["udp%3A%2F%2Ftracker.openbittorrent.com%3A80","udp%3A%2F%2Fopen.demonii.com%3A1337","udp%3A%2F%2Ftracker.coppersurfer.tk%3A6969","udp%3A%2F%2Fexodus.desync.com%3A6969"],"infoHash":"154396c5d7fa98c1bab6c4738a2a8dd7545eebb9","infoHashBuffer":{"type":"Buffer","data":[21,67,150,197,215,250,152,193,186,182,196,115,138,42,141,215,84,94,235,185]},"announce":[],"urlList":[]}}